PathFileType	4	(X/Y/Z)	D:\TRACE\spotREDO_2-26-24\spot_Both_Motion_1_9-v60.trc
DataRate	CameraRate	NumFrames	NumMarkers	Units	OrigDataRate	OrigDataStartFrame	OrigNumFrames
100.00	100.00	      24	9	mm	100.00	1	      7000
Frame#	Time	front left toe			Front right toe			aft left toe			aft right toe			Arm			FL body			FR body			AL Body			AR Body			
		X1	Y1	Z1	X2	Y2	Z2	X3	Y3	Z3	X4	Y4	Z4	X5	Y5	Z5	X6	Y6	Z6	X7	Y7	Z7	X8	Y8	Z8	X9	Y9	Z9	

1	0.000	-215.42427	20.92231	-225.01826	238.78889	20.10917	-202.01675	-254.63431	24.28375	410.99008	255.66080	25.80336	399.70139	-34.66438	978.18262	-637.58514	-63.92783	615.42401	-261.80530	92.21310	620.06561	-269.26938	-29.43775	572.39545	620.66412	113.63335	576.30347	616.36096	
2	0.010	-213.68773	27.01954	-223.72186	239.31842	20.15329	-200.76909	-254.39226	24.21588	410.91809	255.77716	25.45165	399.86469	-35.57507	973.77338	-639.83899	-62.29885	614.91449	-261.20114	93.92907	619.45618	-267.97360	-28.88314	571.17554	621.45300	115.70532	574.45593	617.30499	
3	0.020	-211.05931	36.57619	-221.33653	238.96738	19.59998	-200.99513	-254.17908	24.36238	410.96667	255.91508	25.32923	400.12027	-36.77340	969.39740	-642.60565	-60.67805	614.23212	-260.24866	95.56461	619.12415	-267.22937	-28.38526	570.54706	622.06824	112.26063	575.26892	618.04596	
4	0.030	-209.03789	47.43339	-221.11111	239.08194	19.45078	-200.87596	-253.99680	24.46074	411.08456	255.89018	25.35904	400.21066	-37.30486	964.76904	-644.75104	-59.39703	613.67816	-259.89859	96.97592	618.74060	-266.55310	-27.46670	569.77570	622.76544	113.13421	574.66693	618.60516	
5	0.040	-208.08972	58.65937	-225.63251	238.99434	19.43132	-200.93971	-253.93053	24.59460	411.14886	255.96344	25.43738	400.29977	-38.21487	960.27045	-646.92224	-58.34961	612.97095	-259.20807	97.89273	618.08209	-266.02698	-26.51047	569.36548	623.35083	114.06081	574.58398	619.35101	
6	0.050	-206.56686	70.80639	-234.32729	239.44920	19.79058	-200.68707	-253.66927	24.63258	411.21951	256.13495	25.41986	400.35901	-39.41747	955.27032	-649.23364	-57.57726	612.28809	-258.67566	98.47230	617.52063	-265.60907	-25.32207	568.79211	623.92169	115.00555	574.17706	619.95349	
7	0.060	-204.89655	83.46476	-244.55292	239.27719	20.04175	-200.65646	-253.61206	24.75601	411.31171	256.12347	25.17622	400.29510	-40.47282	950.35339	-651.40869	-57.12949	611.76318	-258.04138	98.13593	617.12177	-265.25540	-24.20855	568.29974	624.33087	115.90372	573.55536	620.23132	
8	0.070	-201.69655	95.50591	-253.08177	239.32831	19.89988	-200.76543	-253.60153	24.75665	411.37845	256.26486	25.09922	400.33774	-41.25196	945.29364	-653.83746	-56.74981	611.47760	-257.61615	99.65470	617.39734	-264.65488	-23.46143	567.83807	624.78949	116.59229	573.06555	620.50421	
9	0.080	-198.00632	105.32983	-259.46017	239.29671	20.01588	-200.66823	-253.53616	24.84569	411.40628	256.31097	25.12326	400.39520	-41.88749	940.44470	-655.98956	-56.48177	611.42505	-257.47415	99.85899	617.19977	-264.48041	-22.63120	567.23981	625.00067	117.85009	572.32239	620.82098	
10	0.090	-193.72635	114.02633	-263.73077	239.41957	19.89303	-200.69809	-253.50481	24.88609	411.42859	256.31760	25.10883	400.39523	-42.34497	935.54364	-658.34198	-56.37831	611.26227	-257.19647	100.12942	617.23456	-264.70276	-21.78339	566.64557	625.22089	118.13866	571.96002	620.90741	
11	0.100	-190.06288	121.32747	-268.60373	239.29564	19.80130	-200.75197	-253.55344	24.97418	411.56461	256.35208	25.24961	400.45078	-42.29438	930.20929	-660.31451	-56.36485	610.88226	-257.09799	100.02454	616.73578	-264.48123	-21.26340	566.29706	625.36652	118.02510	571.72180	620.86218	
12	0.110	-187.47093	127.40059	-275.39105	239.25511	19.85734	-200.77158	-253.48804	24.91007	411.67343	256.30069	25.15273	400.41028	-42.45277	925.37524	-662.73621	-56.33322	610.52478	-257.16324	100.12132	616.42053	-264.45773	-20.76837	566.07758	625.48059	118.95450	571.52277	620.73315	
13	0.120	-183.46062	132.18294	-284.06671	239.08292	19.92475	-200.83456	-253.40244	24.87373	411.78088	256.32513	25.03193	400.36166	-42.08279	920.08020	-664.78613	-56.47252	610.20972	-257.07983	99.95019	616.06824	-264.53241	-19.98674	565.80078	625.49054	120.36271	571.11456	620.69312	
14	0.130	-180.97678	136.15515	-293.53723	239.13855	19.97844	-200.84392	-253.41141	24.92431	411.82870	256.37192	25.01014	400.36169	-42.08348	915.30298	-667.14600	-56.55009	609.76410	-257.05658	99.67296	615.73273	-264.72443	-19.68379	565.79529	625.40063	120.48600	571.08508	620.51263	
15	0.140	-177.08354	137.81067	-303.76465	239.01201	19.99592	-200.87508	-253.46501	24.95280	411.86288	256.38501	25.04395	400.39447	-41.39304	910.10571	-669.35309	-56.63457	609.40668	-257.23810	99.59760	615.31171	-264.94284	-19.55462	565.79846	625.29059	120.75387	571.01410	620.33911	
16	0.150	-172.48712	137.50923	-312.66772	239.04457	19.92927	-200.80788	-253.43982	24.96391	411.89874	256.40710	25.09640	400.42786	-41.14714	905.29816	-671.71979	-56.79110	609.13324	-257.51489	99.61992	615.16095	-265.02469	-19.63288	565.67889	624.89752	121.15298	570.82770	620.05249	
17	0.160	-167.85193	136.14696	-320.77527	239.03976	19.79135	-200.85342	-253.48769	24.85507	411.80536	256.36758	25.20111	400.44211	-40.93696	900.54541	-674.18408	-56.76238	608.81866	-257.78345	99.52720	614.99371	-265.38965	-20.01085	565.44464	624.52039	121.01463	570.79388	619.64734	
18	0.170	-163.27492	134.20518	-328.70593	239.07990	19.77588	-200.85335	-253.48972	24.60382	411.73987	256.35925	25.27528	400.42834	-40.43195	895.77783	-676.51099	-56.82991	608.48572	-258.34619	99.36500	614.58228	-265.90952	-20.39562	565.30603	624.01355	120.59383	570.72662	619.26331	
19	0.180	-159.28568	133.73778	-336.53244	239.20436	19.78390	-200.78806	-253.51466	24.66612	411.65704	256.28122	25.43005	400.40897	-39.86506	890.84863	-678.66815	-56.89581	608.12384	-259.14771	99.16502	614.27905	-266.41666	-21.08264	565.42700	623.42236	120.06522	570.80389	618.93823	
20	0.190	-155.42316	133.21979	-344.78549	239.19690	19.97163	-200.65468	-253.55438	24.68769	411.60880	256.26025	25.49933	400.40546	-39.80181	886.49072	-681.12653	-57.12435	607.49585	-259.76608	98.91079	613.77460	-267.22864	-21.52385	565.44373	622.88336	119.80984	570.95227	618.26526	
21	0.200	-152.17851	133.23558	-353.95483	239.11804	19.72994	-200.73744	-253.57053	24.73279	411.63736	256.28452	25.56780	400.41678	-39.71460	881.75732	-683.35004	-57.22325	607.07745	-260.28387	98.99503	613.42780	-267.67740	-22.04045	565.45874	622.02911	119.05344	571.12457	617.39423	
22	0.210	-148.39989	133.56218	-363.41513	239.20062	19.96207	-200.65024	-253.59068	24.54996	411.58679	256.23505	25.59500	400.41953	-39.76440	877.09387	-685.80756	-57.64824	606.78302	-261.22208	99.04383	613.30548	-268.57803	-22.72837	565.63293	621.26654	118.84207	571.11450	616.97119	
23	0.220	-144.51901	133.53665	-372.48203	239.17258	19.97498	-200.63857	-253.67906	24.47507	411.61795	256.20135	25.55530	400.34326	-39.66563	872.41180	-688.15588	-57.88287	606.47736	-262.22684	98.51540	612.84882	-269.37885	-23.17318	565.56995	620.53119	118.22578	571.20508	615.99725	
24	0.230	-140.62697	131.89305	-380.79779	239.30542	19.85724	-200.66832	-253.61494	24.40280	411.56546	256.13031	25.57676	400.30356	-39.50336	867.95319	-690.36188	-57.93441	606.02734	-263.08844	98.14705	612.31592	-270.22433	-23.61774	565.47614	619.55957	117.47755	571.22003	615.16064	
